<?xml version="1.0" standalone="no"?><!DOCTYPE svg PUBLIC "-//W3C//DTD SVG 1.1//EN" "http://www.w3.org/Graphics/SVG/1.1/DTD/svg11.dtd"><svg t="1611142455958" class="icon" viewBox="0 0 1024 1024" version="1.1" xmlns="http://www.w3.org/2000/svg" p-id="4385" xmlns:xlink="http://www.w3.org/1999/xlink" width="64" height="64"><defs><style type="text/css"></style></defs><path d="M714.23 903.708h-400.517c-23.698 0-42.937-19.183-42.937-42.935v-743.788c0-23.698 19.238-42.937 42.937-42.937h400.518c23.698 0 42.937 19.187 42.937 42.937v743.842c0 23.697-19.239 42.881-42.938 42.881v0zM513.972 860.828c15.813 0 28.623-12.809 28.623-28.626 0-15.813-12.811-28.623-28.623-28.623-15.817 0-28.623 12.809-28.623 28.623 0 15.817 12.805 28.626 28.623 28.626v0zM714.23 159.864h-400.518v600.779h400.518v-600.779zM714.23 159.864z" p-id="4386"></path></svg>