<?xml version="1.0" encoding="UTF-8"?>
<svg width="256px" height="64px" viewBox="0 0 256 64" version="1.1" xmlns="http://www.w3.org/2000/svg" xmlns:xlink="http://www.w3.org/1999/xlink">
    <!-- Generator: Sketch 57.1 (83088) - https://sketch.com -->
    <title>lewike-logo</title>
    <desc>Created with Sketch.</desc>
    <g id="页面-1" stroke="none" stroke-width="1" fill="none" fill-rule="evenodd">
        <g id="lewike-logo" transform="translate(-1.000000, 0.000000)" fill-rule="nonzero">
            <path d="M53.12,1.424 C40.7792605,-0.474558353 28.2207395,-0.474558353 15.88,1.424 C9.29,3.023 4.164,7.919 2.49,14.214 C0.502504373,25.9880486 0.502504373,38.0119514 2.49,49.786 C4.164,56.081 9.29,60.977 15.88,62.576 C28.2207395,64.4745584 40.7792605,64.4745584 53.12,62.576 C59.71,60.977 64.836,56.081 66.51,49.786 C68.4974768,38.0119498 68.4974768,25.9880502 66.51,14.214 C64.836,7.919 59.71,3.023 53.12,1.424 Z M43.655,50.534 L34.212,41.516 L29.635,45.888 C29.2292209,46.268172 28.6613867,46.4224911 28.119,46.3 C27.5818542,46.1849723 27.1421311,45.800829 26.956,45.284 L17.8,19.05 C17.6065022,18.4919061 17.7592723,17.8722077 18.19,17.468 C18.6326222,17.0501167 19.2680097,16.9070874 19.847,17.095 L47.313,25.84 C47.845,26.009 48.247,26.429 48.376,26.951 C48.5031974,27.4760539 48.3386212,28.0289688 47.945,28.399 L43.368,32.771 L52.808,41.79 C53.1104428,42.0730503 53.2820826,42.4687669 53.2820826,42.883 C53.2820826,43.2972331 53.1104428,43.6929497 52.808,43.976 L45.943,50.534 C45.299727,51.137515 44.298273,51.137515 43.655,50.534 L43.655,50.534 Z" id="形状" fill="#206BC4"></path>
            <path d="M98.748,15.239 L98.748,47.523 L110.554,47.523 C112.851,47.523 114,48.603 114,50.761 C114,52.921 112.851,54 110.554,54 L95.302,54 C93.101,54 92,52.92 92,50.761 L92,15.38 C92,13.126 93.149,12 95.446,12 C97.551,12 98.652,13.08 98.748,15.239 Z M132.838,28 L130.739,28 C128.593,28.391 127.053,29.516 126.119,31.373 C125.467,32.644 125.093,34.453 125,36.8 L125.98,37.533 L127.8,38.413 C129.573,39.0000371 131.579,39.147 133.818,38.853 C136.525,38.658 137.504,36.703 136.758,32.987 C136.385,31.617 135.965,30.591 135.498,29.907 C134.845,28.929 133.958,28.293 132.838,28 L132.838,28 Z M130.885,53.977 C128.245,53.884 125.876,53.001 123.781,51.327 C121.322,49.469 119.865,46.866 119.41,43.52 L119,40.034 C119,35.665 120.002,32.04 122.005,29.159 C123.645,26.835 125.74,25.255 128.29,24.419 C129.190635,24.2203331 130.103222,24.0803718 131.022,24 L132.662,24 C135.12,24 137.352,24.65 139.355,25.952 C141.632,27.532 143.089,29.716 143.727,32.505 C143.909,33.249 144,34.178 144,35.294 L144,35.433 C144,39.337 141.359,41.568 136.077,42.125 C134.255,42.311 132.206,42.265 129.929,41.986 L127.469,41.707 L125.831,41.428 L126.241,43.798 C126.969,46.773 128.244,48.539 130.066,49.097 C130.703,49.283 131.386,49.329 132.115,49.237 C135.94,49.05 138.399,48.027 139.492,46.169 C140.312,45.239 141.086,45.053 141.814,45.611 C142.543,46.169 142.634,46.959 142.087,47.981 C140.357,50.863 138.08,52.675 135.257,53.419 C133.617,53.884 132.16,54.069 130.885,53.977 L130.885,53.977 Z M182.073,24.925 C183.969,25.847 184.466,27.276 183.563,29.213 L176.248,52.033 C175.254,53.969 173.854,54.476 172.048,53.553 C171.416,53.185 170.964,52.724 170.693,52.171 L170.016,51.064 L166.9,40.83 L163.513,52.033 C162.61,53.969 161.21,54.476 159.313,53.553 C158.774129,53.1871077 158.313787,52.717246 157.959,52.171 L157.417,51.064 L150.237,28.244 C149.605,26.216 150.237,24.879 152.134,24.234 C154.121,23.588 155.43,24.28 156.062,26.308 L160.532,40.415 L163.784,29.905 C163.874,28.521 164.552,27.599 165.816,27.138 C167.803,26.493 169.113,27.184 169.745,29.213 L173.403,40.692 L177.873,26.308 C178.867,24.464 180.267,24.003 182.073,24.925 Z M197,32.155 L197,50.845 C196.911,52.948 195.889,54 193.933,54 C191.978,54 191,52.948 191,50.844 L191,32.3 C191,30.1 191.978,29.001 193.933,29.001 C195.889,29.001 196.911,30.053 197,32.157 L197,32.155 Z M193.5,17 C195.833,17 197,18.19 197,20.571 C197,22.857 195.833,24 193.5,24 C191.167,24 190,22.857 190,20.571 C190,18.191 191.167,17 193.5,17 Z M217.824,38.036 L224.163,48.886 C225.408,50.408 225.264,51.836 223.732,53.168 C222.103,54.405 220.667,54.263 219.422,52.74 L211.79,40.32 C211.407,39.749 211.168,39.178 211.072,38.607 C210.88,37.655 211.072,36.798 211.647,36.037 L219.272,26.331 C220.517,24.713 221.906,24.571 223.439,25.903 C225.067,27.14 225.259,28.52 224.013,30.043 L217.824,38.036 L217.824,38.036 Z M211,19.84 L211,51.158 C210.905,53.052 209.905,53.999 208,53.999 C206,53.999 205,53.005 205,51.016 L205,19.983 C205,17.994 206,17 208,17 C209.905,17 210.905,17.947 211,19.84 Z M245.839,28 L243.739,28 C241.593,28.391 240.053,29.516 239.119,31.373 C238.467,32.644 238.093,34.453 238,36.8 L238.98,37.533 L240.8,38.413 C242.573,39.0000371 244.579,39.147 246.818,38.853 C249.525,38.658 250.504,36.703 249.758,32.987 C249.385,31.617 248.965,30.591 248.498,29.907 C247.845,28.929 246.958,28.293 245.838,28 L245.839,28 Z M242.885,53.977 C240.245,53.884 237.876,53.001 235.781,51.327 C233.322,49.469 231.865,46.866 231.41,43.52 L231,40.034 C231,35.665 232.002,32.04 234.005,29.159 C235.645,26.835 237.74,25.255 240.29,24.419 C241.190635,24.2203331 242.103222,24.0803718 243.022,24 L244.662,24 C247.12,24 249.352,24.65 251.355,25.952 C253.632,27.532 255.089,29.716 255.727,32.505 C255.909,33.249 256,34.178 256,35.294 L256,35.433 C256,39.337 253.359,41.568 248.077,42.125 C246.255,42.311 244.206,42.265 241.929,41.986 L239.469,41.707 L237.831,41.428 L238.241,43.798 C238.969,46.773 240.244,48.539 242.066,49.097 C242.703,49.283 243.386,49.329 244.115,49.237 C247.94,49.05 250.399,48.027 251.492,46.169 C252.312,45.239 253.086,45.053 253.814,45.611 C254.543,46.169 254.634,46.959 254.087,47.981 C252.357,50.863 250.08,52.675 247.257,53.419 C245.617,53.884 244.16,54.069 242.885,53.977 L242.885,53.977 Z" id="Lewike" stroke="#4A4A4A" fill="#4A4A4A"></path>
        </g>
    </g>
</svg>