<svg width="256" height="64" viewBox="0 0 256 64" xmlns="http://www.w3.org/2000/svg"><g id="页面-1" stroke="none" stroke-width="1" fill="none" fill-rule="evenodd"><g id="logo" fill-rule="nonzero"><path d="M65.51 14.214c-1.674-6.295-6.8-11.191-13.39-12.79a122.455 122.455 0 0 0-37.24 0C8.29 3.023 3.164 7.919 1.49 14.214a106.856 106.856 0 0 0 0 35.572c1.674 6.295 6.8 11.191 13.39 12.79a122.455 122.455 0 0 0 37.24 0c6.59-1.599 11.716-6.495 13.39-12.79a106.857 106.857 0 0 0 0-35.572zm-22.855 36.32l-9.443-9.018-4.577 4.372a1.677 1.677 0 0 1-1.516.412 1.59 1.59 0 0 1-1.163-1.016L16.8 19.05a1.497 1.497 0 0 1 .39-1.582 1.665 1.665 0 0 1 1.657-.373l27.466 8.745c.532.169.934.589 1.063 1.111a1.502 1.502 0 0 1-.431 1.448l-4.577 4.372 9.44 9.019a1.497 1.497 0 0 1 0 2.186l-6.865 6.558a1.672 1.672 0 0 1-2.288 0z" fill="#FFF" id="形状"/><path d="M97.748 15.239v32.284h11.806c2.297 0 3.446 1.08 3.446 3.238 0 2.16-1.149 3.239-3.446 3.239H94.302C92.101 54 91 52.92 91 50.761V15.38C91 13.126 92.149 12 94.446 12c2.105 0 3.206 1.08 3.302 3.239zM131.838 28h-2.099c-2.146.391-3.686 1.516-4.62 3.373-.652 1.271-1.026 3.08-1.119 5.427l.98.733 1.82.88c1.773.587 3.779.734 6.018.44 2.707-.195 3.686-2.15 2.94-5.866-.373-1.37-.793-2.396-1.26-3.08-.653-.978-1.54-1.614-2.66-1.907zm-1.953 25.977c-2.64-.093-5.009-.976-7.104-2.65-2.459-1.858-3.916-4.461-4.371-7.807l-.41-3.486c0-4.369 1.002-7.994 3.005-10.875 1.64-2.324 3.735-3.904 6.285-4.74a21.3 21.3 0 0 1 2.732-.419h1.64c2.458 0 4.69.65 6.693 1.952 2.277 1.58 3.734 3.764 4.372 6.553.182.744.273 1.673.273 2.789v.139c0 3.904-2.641 6.135-7.923 6.692-1.822.186-3.871.14-6.148-.139l-2.46-.279-1.638-.279.41 2.37c.728 2.975 2.003 4.741 3.825 5.299.637.186 1.32.232 2.049.14 3.825-.187 6.284-1.21 7.377-3.068.82-.93 1.594-1.116 2.322-.558.729.558.82 1.348.273 2.37-1.73 2.882-4.007 4.694-6.83 5.438-1.64.465-3.097.65-4.372.558zm51.188-29.052c1.896.922 2.393 2.351 1.49 4.288l-7.315 22.82c-.994 1.936-2.394 2.443-4.2 1.52-.632-.368-1.084-.829-1.355-1.382l-.677-1.107L165.9 40.83l-3.387 11.203c-.903 1.936-2.303 2.443-4.2 1.52a4.89 4.89 0 0 1-1.354-1.382l-.542-1.107-7.18-22.82c-.632-2.028 0-3.365 1.897-4.01 1.987-.646 3.296.046 3.928 2.074l4.47 14.107 3.252-10.51c.09-1.384.768-2.306 2.032-2.767 1.987-.645 3.297.046 3.929 2.075l3.658 11.479 4.47-14.384c.994-1.844 2.394-2.305 4.2-1.383zM196 32.155v18.69c-.089 2.103-1.111 3.155-3.067 3.155-1.955 0-2.933-1.052-2.933-3.156V32.3c0-2.2.978-3.299 2.933-3.299 1.956 0 2.978 1.052 3.067 3.156zM192.5 17c2.333 0 3.5 1.19 3.5 3.571 0 2.286-1.167 3.429-3.5 3.429s-3.5-1.143-3.5-3.429c0-2.38 1.167-3.571 3.5-3.571zm24.324 21.036l6.339 10.85c1.245 1.522 1.101 2.95-.431 4.282-1.629 1.237-3.065 1.095-4.31-.428l-7.632-12.42c-.383-.571-.622-1.142-.718-1.713-.192-.952 0-1.809.575-2.57l7.625-9.706c1.245-1.618 2.634-1.76 4.167-.428 1.628 1.237 1.82 2.617.574 4.14l-6.189 7.993zM210 19.84v31.318c-.095 1.894-1.095 2.841-3 2.841-2 0-3-.994-3-2.983V19.983c0-1.989 1-2.983 3-2.983 1.905 0 2.905.947 3 2.84zM244.839 28h-2.1c-2.146.391-3.686 1.516-4.62 3.373-.652 1.271-1.026 3.08-1.119 5.427l.98.733 1.82.88c1.773.587 3.779.734 6.018.44 2.707-.195 3.686-2.15 2.94-5.866-.373-1.37-.793-2.396-1.26-3.08-.653-.978-1.54-1.614-2.66-1.907zm-2.954 25.977c-2.64-.093-5.009-.976-7.104-2.65-2.459-1.858-3.916-4.461-4.371-7.807l-.41-3.486c0-4.369 1.002-7.994 3.005-10.875 1.64-2.324 3.735-3.904 6.285-4.74a21.3 21.3 0 0 1 2.732-.419h1.64c2.458 0 4.69.65 6.693 1.952 2.277 1.58 3.734 3.764 4.372 6.553.182.744.273 1.673.273 2.789v.139c0 3.904-2.641 6.135-7.923 6.692-1.822.186-3.871.14-6.148-.139l-2.46-.279-1.638-.279.41 2.37c.728 2.975 2.003 4.741 3.825 5.299.637.186 1.32.232 2.049.14 3.825-.187 6.284-1.21 7.377-3.068.82-.93 1.594-1.116 2.322-.558.729.558.82 1.348.273 2.37-1.73 2.882-4.007 4.694-6.83 5.438-1.64.465-3.097.65-4.372.558z" id="Lewike" stroke="#FFF" fill="#FFF"/></g></g></svg>