<?xml version="1.0" standalone="no"?><!DOCTYPE svg PUBLIC "-//W3C//DTD SVG 1.1//EN" "http://www.w3.org/Graphics/SVG/1.1/DTD/svg11.dtd"><svg class="icon" width="200px" height="200.00px" viewBox="0 0 1024 1024" version="1.1" xmlns="http://www.w3.org/2000/svg"><path fill="#07c160" d="M511.94 580.22c66.5 0 129.09 25.82 176.24 72.7 22.95 22.82 41.01 49.39 53.68 78.97 4.52 10.55 8.28 21.34 11.28 32.33H270.73c3-10.98 6.76-21.77 11.28-32.33 12.67-29.59 30.73-56.16 53.68-78.97 47.16-46.88 109.75-72.7 176.25-72.7"  /><path fill="#07c160" d="M511.94 516.22c-160.67 0-293.15 120.69-311.75 276.35-2.27 18.98 12.68 35.65 31.8 35.65h559.9c19.12 0 34.06-16.67 31.8-35.65-18.61-155.67-151.08-276.35-311.75-276.35z"  /><path fill="#07c160" d="M511.94 356.72m-160 0a160 160 0 1 0 320 0 160 160 0 1 0-320 0Z"  /></svg>