<?xml version="1.0" standalone="no"?><!DOCTYPE svg PUBLIC "-//W3C//DTD SVG 1.1//EN" "http://www.w3.org/Graphics/SVG/1.1/DTD/svg11.dtd"><svg class="icon" width="200px" height="200.00px" viewBox="0 0 1024 1024" version="1.1" xmlns="http://www.w3.org/2000/svg"><path fill="#2c2c2c" d="M512 262.32l247.23 129.73c0.37 0.94 0.77 2.48 0.77 4.48V762.1c0 0.71-0.05 1.34-0.12 1.91H631.47V572.6c0-35.35-28.65-64-64-64H456.53c-35.35 0-64 28.65-64 64V764H264.12c-0.07-0.57-0.12-1.2-0.12-1.91V396.52c0-2 0.4-3.53 0.77-4.48L512 262.32m0-66.32c-8.91 0-17.83 2.55-25.94 7.65L229.53 338.26C211.36 349.68 200 372.1 200 396.52v365.57c0 36.4 24.83 65.91 55.47 65.91h201.07V572.6h110.93V828h201.07c30.63 0 55.47-29.51 55.47-65.91V396.52c0-24.42-11.36-46.84-29.53-58.26L537.94 203.65c-8.11-5.1-17.03-7.65-25.94-7.65z" /></svg>