<?xml version="1.0" standalone="no"?><!DOCTYPE svg PUBLIC "-//W3C//DTD SVG 1.1//EN" "http://www.w3.org/Graphics/SVG/1.1/DTD/svg11.dtd"><svg class="icon" width="200px" height="200.00px" viewBox="0 0 1024 1024" version="1.1" xmlns="http://www.w3.org/2000/svg"><path fill="#2c2c2c" d="M762 262v500H262V262h500m0-64H262c-35.35 0-64 28.65-64 64v500c0 35.35 28.65 64 64 64h500c35.35 0 64-28.65 64-64V262c0-35.35-28.65-64-64-64z"  /><path fill="#2c2c2c" d="M672 480H544V352c0-17.67-14.33-32-32-32s-32 14.33-32 32v128H352c-17.67 0-32 14.33-32 32s14.33 32 32 32h128v128c0 17.67 14.33 32 32 32s32-14.33 32-32V544h128c17.67 0 32-14.33 32-32s-14.33-32-32-32z"  /></svg>