<?xml version="1.0" standalone="no"?><!DOCTYPE svg PUBLIC "-//W3C//DTD SVG 1.1//EN" "http://www.w3.org/Graphics/SVG/1.1/DTD/svg11.dtd"><svg class="icon" width="200px" height="200.00px" viewBox="0 0 1024 1024" version="1.1" xmlns="http://www.w3.org/2000/svg"><path fill="#2c2c2c" d="M512 287.05l43.35 133.4c8.57 26.37 33.14 44.22 60.87 44.22h140.27L643 547.12c-22.43 16.3-31.82 45.18-23.25 71.55l43.35 133.4-113.48-82.45C538.4 661.47 525.2 657.4 512 657.4s-26.4 4.07-37.62 12.22L360.9 752.08l43.35-133.4c8.57-26.37-0.82-55.26-23.25-71.55l-113.48-82.45h140.27c27.73 0 52.3-17.85 60.87-44.22L512 287.05m0-119.37c-15.72 0-31.45 9.04-37.32 27.11l-66.89 205.88H191.32c-38.01 0-53.82 48.64-23.06 70.99L343.38 598.9l-66.89 205.88c-8.95 27.54 12.93 51.54 37.46 51.54 7.67 0 15.6-2.35 22.93-7.67L512 721.41l175.13 127.24c7.33 5.32 15.26 7.67 22.93 7.67 24.53 0 46.4-24.01 37.46-51.54l-66.9-205.88 175.13-127.24c30.75-22.34 14.95-70.99-23.06-70.99H616.21L549.32 194.8c-5.87-18.08-21.6-27.12-37.32-27.12z" /></svg>