<?xml version="1.0" standalone="no"?><!DOCTYPE svg PUBLIC "-//W3C//DTD SVG 1.1//EN" "http://www.w3.org/Graphics/SVG/1.1/DTD/svg11.dtd"><svg class="icon" width="200px" height="200.00px" viewBox="0 0 1024 1024" version="1.1" xmlns="http://www.w3.org/2000/svg"><path fill="#2c2c2c" d="M511.94 580.22c66.5 0 129.09 25.82 176.24 72.7 22.95 22.82 41.01 49.39 53.68 78.97 4.52 10.55 8.28 21.34 11.28 32.33H270.73c3-10.98 6.76-21.77 11.28-32.33 12.67-29.59 30.73-56.16 53.68-78.97 47.16-46.88 109.75-72.7 176.25-72.7m0-64c-160.67 0-293.15 120.69-311.75 276.35-2.27 18.98 12.68 35.65 31.8 35.65h559.9c19.12 0 34.06-16.67 31.8-35.65-18.61-155.67-151.08-276.35-311.75-276.35zM511.94 260.22c52.93 0 96 43.07 96 96s-43.07 96-96 96-96-43.07-96-96 43.06-96 96-96m0-64c-88.37 0-160 71.63-160 160s71.63 160 160 160 160-71.63 160-160-71.64-160-160-160z" /></svg>